<svg xmlns="http://www.w3.org/2000/svg" viewBox="0 0 120 120">
  <title>ダッシュボード</title>
  <desc>メーターとグラフを配置したダッシュボードアイコン</desc>
  <rect width="120" height="120" rx="12" fill="#F9FAFB"/>
  <rect x="16" y="20" width="88" height="64" rx="8" fill="none" stroke="#1B4565" stroke-width="2"/>
  <line x1="60" y1="20" x2="60" y2="84" stroke="#E5E7EB" stroke-width="1.5"/>
  <line x1="16" y1="52" x2="104" y2="52" stroke="#E5E7EB" stroke-width="1.5"/>
  <path d="M30 46 C30 32 56 32 56 46" fill="none" stroke="#3E9BA4" stroke-width="2"/>
  <line x1="43" y1="46" x2="50" y2="36" stroke="#1B4565" stroke-width="2" stroke-linecap="round"/>
  <circle cx="43" cy="46" r="3" fill="#1B4565"/>
  <rect x="66" y="32" width="10" height="16" rx="2" fill="#3E9BA4"/>
  <rect x="80" y="26" width="10" height="22" rx="2" fill="#1B4565"/>
  <rect x="94" y="36" width="6" height="12" rx="2" fill="#E5E7EB"/>
  <circle cx="38" cy="68" r="8" fill="none" stroke="#3E9BA4" stroke-width="2"/>
  <path d="M38 60 L38 68 L44 68" fill="none" stroke="#3E9BA4" stroke-width="1.5"/>
  <rect x="66" y="60" width="30" height="6" rx="3" fill="#E5E7EB"/>
  <rect x="66" y="60" width="20" height="6" rx="3" fill="#3E9BA4"/>
  <rect x="66" y="70" width="30" height="6" rx="3" fill="#E5E7EB"/>
  <rect x="66" y="70" width="12" height="6" rx="3" fill="#1B4565"/>
  <rect x="36" y="92" width="48" height="8" rx="4" fill="#E5E7EB"/>
</svg>
